<?xml version="1.0" encoding="UTF-8" standalone="no"?>
<!-- Created with Inkscape (http://www.inkscape.org/) -->

<svg
   width="112.93974"
   height="132.59016"
   viewBox="0 0 29.881974 35.081146"
   version="1.1"
   id="svg5"
   inkscape:version="1.2.1 (9c6d41e410, 2022-07-14)"
   sodipodi:docname="icons_progress.svg"
   xml:space="preserve"
   xmlns:inkscape="http://www.inkscape.org/namespaces/inkscape"
   xmlns:sodipodi="http://sodipodi.sourceforge.net/DTD/sodipodi-0.dtd"
   xmlns="http://www.w3.org/2000/svg"
   xmlns:svg="http://www.w3.org/2000/svg"><sodipodi:namedview
     id="namedview7"
     pagecolor="#ffffff"
     bordercolor="#000000"
     borderopacity="0.25"
     inkscape:showpageshadow="2"
     inkscape:pageopacity="0.0"
     inkscape:pagecheckerboard="true"
     inkscape:deskcolor="#d1d1d1"
     inkscape:document-units="px"
     showgrid="false"
     inkscape:zoom="0.70710678"
     inkscape:cx="724.78445"
     inkscape:cy="539.52247"
     inkscape:window-width="1920"
     inkscape:window-height="1049"
     inkscape:window-x="-9"
     inkscape:window-y="-9"
     inkscape:window-maximized="1"
     inkscape:current-layer="layer1"
     showguides="true" /><defs
     id="defs2" /><g
     inkscape:label="Layer 1"
     inkscape:groupmode="layer"
     id="layer1"
     transform="translate(-211.87722,-200.91132)"><g
       id="g22934"
       transform="translate(20.935127,101.66664)"><path
         id="path18923"
         style="color:#000000;fill:#000000;stroke-width:0.864641;stroke-linecap:round;stroke-linejoin:round"
         d="m 215.61557,100.11807 c -0.60794,-0.439147 -1.06499,-0.755367 -1.20261,-0.816377 -0.55068,-0.244034 -1.11232,0.33402 -1.69941,1.002077 -0.16549,0.18834 -1.95924,2.56919 -2.24273,3.34036 -0.71998,0.57607 -8.81455,11.98461 -9.2989,13.16417 -0.85018,2.33283 -2.18223,7.47285 -0.7716,8.48991 1.41056,1.01721 5.91578,-1.90716 7.81398,-3.41246 0.96662,-0.8319 9.23926,-12.11202 9.55876,-12.97686 0.64239,-0.51242 2.33586,-2.96551 2.46234,-3.18197 0.44878,-0.76785 0.82005,-1.48311 0.41459,-1.92842 -0.10147,-0.1113 -0.54578,-0.44503 -1.15453,-0.88309 l -2.4e-4,3.4e-4 c -0.55799,-0.40152 -1.25661,-0.89168 -1.95498,-1.37746 -0.68162,-0.50922 -1.36757,-1.01732 -1.92494,-1.41993 z m 0.92873,2.74428 c 0.018,0.0127 0.0358,0.0258 0.0534,0.0386 1.17033,0.84228 2.31333,1.71395 2.32427,1.91828 0.0222,0.42009 -1.6099,2.44868 -1.87028,2.48515 -0.12675,0.018 -1.30578,-0.80392 -2.48048,-1.65031 -1.17403,-0.8475 -2.32663,-1.70637 -2.34979,-1.83221 -0.0476,-0.25844 1.36253,-2.44729 1.7683,-2.55868 0.19755,-0.0536 1.38576,0.75464 2.55445,1.59918 z m -4.21858,3.25624 c 0.37748,0.26825 0.80027,0.5819 1.22009,0.90034 l -6.3e-4,8.5e-4 c 0.005,0.007 0.0189,0.0122 0.0275,0.0187 0.005,0.007 0.0179,0.0128 0.0259,0.0196 l 6.3e-4,-8.4e-4 c 1.18908,0.8156 2.35239,1.66004 2.39015,1.86548 -2.4243,3.7187 -7.43808,10.32417 -7.85706,10.9049 0,0 -0.16094,-0.43655 -0.54334,-0.71235 -0.38259,-0.2758 -0.71692,-0.31432 -1.10777,-0.2991 l -0.007,6.9e-4 c -0.0932,-0.36899 -0.24624,-0.67853 -0.65086,-0.98075 l 6.2e-4,-8.6e-4 c -0.005,-0.006 -0.0104,-0.011 -0.0194,-0.0151 -9.4e-4,-5.1e-4 -0.004,-0.003 -0.006,-0.005 -9.3e-4,-5.1e-4 -0.004,-0.004 -0.004,-0.005 -0.005,-0.006 -0.0118,-0.008 -0.0202,-0.014 l -6.4e-4,8.3e-4 c -0.4146,-0.28848 -0.7567,-0.33585 -1.13632,-0.30786 l -7.1e-4,-0.007 c -0.10899,-0.37553 -0.25112,-0.68054 -0.63362,-0.95637 -0.38253,-0.27575 -0.84764,-0.29053 -0.84764,-0.29053 0.41917,-0.58062 5.10532,-7.42233 7.86962,-10.89586 0.13125,-0.0184 0.6499,0.31183 1.30509,0.77804 z m -8.11377,13.13897 c 0.10982,0.079 0.22104,0.15988 0.33201,0.24078 l -2.6e-4,3.3e-4 c 0.005,0.007 0.0177,0.0125 0.0265,0.019 0.005,0.007 0.0178,0.0124 0.0261,0.019 l 2.6e-4,-3.5e-4 c 1.02028,0.7243 1.99953,1.46872 1.99776,1.66381 -0.004,0.40752 -2.82194,2.19964 -3.63825,2.17801 -0.32378,-0.008 -0.6436,-0.16082 -0.9217,-0.346 -0.26342,-0.20533 -0.50865,-0.46053 -0.61898,-0.76483 -0.27838,-0.76748 0.5329,-4.00665 0.9186,-4.13886 0.16439,-0.0562 0.9872,0.48704 1.87809,1.12862 z"
         sodipodi:nodetypes="csscczccsscccccssssccscscccccccsccccsssccccsccsscccccsscsssscc" /><path
         style="color:#000000;fill:#000000;stroke-linecap:round;stroke-linejoin:round;stroke-dasharray:54.1036, 24.4754;-inkscape-stroke:none"
         d="m -213.53278,-123.94315 c -0.1632,-2.64507 -0.62309,-5.23924 0.83084,-6.55896 1.45392,-1.31971 5.07228,-1.23675 9.61857,-1.38264 2.72975,-0.0876 4.81807,0.0257 6.09028,0.34023 1.27222,0.31448 2.10676,0.76494 2.4758,1.05177 0.5446,0.42328 0.81477,1.96185 0.9168,4.09878 0.071,1.48719 0.0435,3.23008 0.0418,5.23131 -0.003,3.5205 -5.9e-4,7.25705 -0.25238,9.55124 -0.25179,2.29419 -0.332,3.20458 -0.72855,3.89141 -0.34674,0.60057 -1.52132,1.08688 -2.94181,1.21635 -1.42813,0.13017 -3.13227,-5.8e-4 -4.21904,-0.10918 -1.08676,-0.10856 -2.83441,0.73706 -2.62904,1.50352 0.20538,0.76647 1.40158,0.65743 2.83386,0.65743 1.43228,0 7.47013,0.63573 9.1692,-1.6976 1.25295,-1.72067 1.02262,-6.11359 1.2302,-11.42621 0.29128,-7.45486 0.32869,-13.53176 -1.35134,-15.2118 -1.22092,-1.22093 -5.69633,-1.55131 -10.91786,-1.53794 -5.08893,0.013 -10.36681,0.62268 -11.71745,1.97333 -1.44084,1.44083 -1.02066,5.27097 -1.05049,9.03419 -0.0268,3.38401 -1.21032,5.6194 0.041,5.6194 1.25127,0 1.93346,-1.60993 2.16002,-2.45546 0.22656,-0.84554 0.45081,-2.84949 0.39962,-3.78917 z"
         id="rect19159"
         transform="scale(-1)"
         sodipodi:nodetypes="czszssszsszzzsssssszzcc" /></g></g></svg>
