<?xml version="1.0" encoding="UTF-8" standalone="no"?>
<!-- Created with Inkscape (http://www.inkscape.org/) -->

<svg
   width="157.16698"
   height="134.74384"
   viewBox="0 0 41.583763 35.650972"
   version="1.1"
   id="svg5"
   inkscape:version="1.2.1 (9c6d41e410, 2022-07-14)"
   sodipodi:docname="icons_progress.svg"
   xml:space="preserve"
   xmlns:inkscape="http://www.inkscape.org/namespaces/inkscape"
   xmlns:sodipodi="http://sodipodi.sourceforge.net/DTD/sodipodi-0.dtd"
   xmlns="http://www.w3.org/2000/svg"
   xmlns:svg="http://www.w3.org/2000/svg"><sodipodi:namedview
     id="namedview7"
     pagecolor="#ffffff"
     bordercolor="#000000"
     borderopacity="0.25"
     inkscape:showpageshadow="2"
     inkscape:pageopacity="0.0"
     inkscape:pagecheckerboard="true"
     inkscape:deskcolor="#d1d1d1"
     inkscape:document-units="px"
     showgrid="false"
     inkscape:zoom="0.70710678"
     inkscape:cx="724.78445"
     inkscape:cy="539.52247"
     inkscape:window-width="1920"
     inkscape:window-height="1049"
     inkscape:window-x="-9"
     inkscape:window-y="-9"
     inkscape:window-maximized="1"
     inkscape:current-layer="layer1"
     showguides="true" /><defs
     id="defs2" /><g
     inkscape:label="Layer 1"
     inkscape:groupmode="layer"
     id="layer1"
     transform="translate(-46.770835,-201.77488)"><path
       id="path4364"
       style="color:#000000;opacity:1;fill:#000000;stroke-width:0.902223;stroke-linecap:round;stroke-linejoin:round;stroke-dasharray:57.2913, 2.38713;stroke-dashoffset:0"
       d="m 67.458564,201.77487 c -2.403097,0.0153 -19.93824,16.94208 -20.306302,17.51092 -0.368064,0.56888 -0.584425,1.21292 -0.105586,1.69176 0.47884,0.47884 1.170283,0.30373 1.503038,0.0979 0.332755,-0.20579 1.568285,-1.7257 2.002299,-1.74718 0.434016,-0.0215 -0.636481,14.3558 1.748608,16.62562 1.246262,1.18604 8.243247,1.48463 15.262095,1.47104 v 4.8e-4 c 7.018847,0.0136 14.015832,-0.285 15.262095,-1.47103 2.385088,-2.26983 1.314593,-16.64712 1.748608,-16.62563 0.434015,0.0214 1.669545,1.54139 2.002298,1.74718 0.332755,0.20579 1.024198,0.38089 1.503039,-0.0979 0.478837,-0.47884 0.262478,-1.12287 -0.105586,-1.69175 -0.368063,-0.56912 -17.903204,-17.4961 -20.306302,-17.5114 -0.0316,-2e-4 -0.0672,0.004 -0.104152,0.01 -0.03694,-0.006 -0.07255,-0.0102 -0.104152,-0.01 z m 0.0048,2.79586 c 0.03069,0 0.06391,0.004 0.09938,0.009 0.03546,-0.006 0.06868,-0.009 0.09937,-0.009 1.930657,0 13.481477,11.76441 13.481477,11.76441 0,0 0.622738,0.64857 0.796429,1.06015 0.17369,0.41157 0.24557,1.4094 0.24557,1.4094 0,0 0.21702,13.68364 -1.342988,15.02702 -0.514385,0.44296 -3.707362,0.67897 -7.748816,0.79739 0.0776,-3.22707 0.231077,-12.76648 -0.568536,-13.91385 -0.488319,-0.70068 -2.794734,-0.77397 -4.96251,-0.77397 -2.167777,0 -4.474194,0.0733 -4.96251,0.77397 -0.799614,1.14737 -0.646142,10.68678 -0.568537,13.91385 -4.041453,-0.11842 -7.234433,-0.35443 -7.748816,-0.79739 -1.560007,-1.34338 -1.342988,-15.02702 -1.342988,-15.02702 0,0 0.07188,-0.99783 0.245569,-1.4094 0.173691,-0.41158 0.796429,-1.06015 0.796429,-1.06015 0,0 11.550821,-11.76441 13.481477,-11.76441 z m 0.09938,17.28016 c 0.674614,3.8e-4 2.928945,0.003 3.376341,0.45053 0.447395,0.44741 0.233386,11.82454 0.213082,12.37498 -1.168079,0.0229 -2.375549,0.0374 -3.589423,0.0463 v -4.8e-4 c -1.213877,-0.009 -2.421346,-0.0234 -3.589424,-0.0463 -0.0203,-0.55044 -0.234314,-11.92759 0.213082,-12.37499 0.447395,-0.44738 2.701728,-0.45042 3.376342,-0.45004 z"
       sodipodi:nodetypes="csssssccsssscsccscscscscszscscscszccccczzz" /></g></svg>
