<?xml version="1.0" encoding="UTF-8" standalone="no"?>
<!-- Created with Inkscape (http://www.inkscape.org/) -->

<svg
   width="113.4334"
   height="113.42983"
   viewBox="0 0 30.012588 30.011642"
   version="1.1"
   id="svg5"
   inkscape:version="1.2.1 (9c6d41e410, 2022-07-14)"
   sodipodi:docname="icons_progress.svg"
   xml:space="preserve"
   xmlns:inkscape="http://www.inkscape.org/namespaces/inkscape"
   xmlns:sodipodi="http://sodipodi.sourceforge.net/DTD/sodipodi-0.dtd"
   xmlns="http://www.w3.org/2000/svg"
   xmlns:svg="http://www.w3.org/2000/svg"><sodipodi:namedview
     id="namedview7"
     pagecolor="#ffffff"
     bordercolor="#000000"
     borderopacity="0.25"
     inkscape:showpageshadow="2"
     inkscape:pageopacity="0.0"
     inkscape:pagecheckerboard="true"
     inkscape:deskcolor="#d1d1d1"
     inkscape:document-units="px"
     showgrid="false"
     inkscape:zoom="0.70710678"
     inkscape:cx="724.78445"
     inkscape:cy="539.52247"
     inkscape:window-width="1920"
     inkscape:window-height="1049"
     inkscape:window-x="-9"
     inkscape:window-y="-9"
     inkscape:window-maximized="1"
     inkscape:current-layer="layer1"
     showguides="true" /><defs
     id="defs2" /><g
     inkscape:label="Layer 1"
     inkscape:groupmode="layer"
     id="layer1"
     transform="translate(-158.76481,-206.12029)"><g
       id="g18929"
       transform="translate(20.708151,102.46039)"><path
         style="opacity:1;fill:none;fill-opacity:1;stroke:#000000;stroke-width:2.64583;stroke-linecap:round;stroke-linejoin:round;stroke-dasharray:584.727;stroke-dashoffset:0;stroke-opacity:1;paint-order:normal"
         id="path16806"
         sodipodi:type="arc"
         sodipodi:cx="68.796829"
         sodipodi:cy="181.04265"
         sodipodi:rx="13.682903"
         sodipodi:ry="13.682903"
         sodipodi:start="0"
         sodipodi:end="6.0277115"
         sodipodi:open="true"
         sodipodi:arc-type="arc"
         d="m 82.479733,181.04265 a 13.682903,13.682903 0 0 1 -12.809592,13.655 13.682903,13.682903 0 0 1 -14.444737,-11.91194 13.682903,13.682903 0 0 1 10.96572,-15.17556 13.682903,13.682903 0 0 1 15.844512,9.97478"
         transform="rotate(-31.40754)" /><path
         style="opacity:1;fill:none;fill-opacity:1;stroke:#000000;stroke-width:2.22685;stroke-linecap:round;stroke-linejoin:round;stroke-dasharray:492.132;stroke-dashoffset:0;stroke-opacity:1;paint-order:normal"
         id="path16877"
         sodipodi:type="arc"
         sodipodi:cx="137.52448"
         sodipodi:cy="131.5179"
         sodipodi:rx="0.70321673"
         sodipodi:ry="0.70321673"
         sodipodi:start="0"
         sodipodi:end="6.0277115"
         sodipodi:open="true"
         sodipodi:arc-type="arc"
         d="m 138.22769,131.5179 a 0.70321673,0.70321673 0 0 1 -0.65833,0.70178 0.70321673,0.70321673 0 0 1 -0.74237,-0.6122 0.70321673,0.70321673 0 0 1 0.56357,-0.77993 0.70321673,0.70321673 0 0 1 0.81431,0.51264"
         transform="rotate(-7.6748345)" /><path
         id="path16879"
         style="color:#000000;fill:#000000;stroke-width:1.05435;stroke-linecap:round;stroke-linejoin:round;stroke-dasharray:585.677"
         d="m 152.28537,117.49324 c 1.33268,-0.36635 0.36949,1.41142 -0.58829,3.55771 -0.95783,2.1463 -3.16347,8.3293 1.10223,7.59978 1.77497,-0.30357 2.55678,-1.59032 2.88258,-2.46238 0.54872,-1.46876 -0.2898,-2.60286 -1.13175,-1.98004 -0.84195,0.62282 -0.87364,2.13363 -1.48158,1.58673 -1.43742,-1.29306 5.4537,-11.6317 0.93937,-10.88058 -4.51435,0.75113 -3.63135,3.55245 -2.83741,3.54313 0.79393,-0.009 0.45389,-0.72081 1.21887,-0.96435 z"
         sodipodi:nodetypes="czsszszzcc" /></g></g></svg>
