<?xml version="1.0" encoding="UTF-8" standalone="no"?>
<!-- Created with Inkscape (http://www.inkscape.org/) -->

<svg
   width="109.11263"
   height="96.76989"
   viewBox="0 0 28.869384 25.603699"
   version="1.1"
   id="svg5"
   inkscape:version="1.2.1 (9c6d41e410, 2022-07-14)"
   sodipodi:docname="icons_progress.svg"
   xml:space="preserve"
   xmlns:inkscape="http://www.inkscape.org/namespaces/inkscape"
   xmlns:sodipodi="http://sodipodi.sourceforge.net/DTD/sodipodi-0.dtd"
   xmlns="http://www.w3.org/2000/svg"
   xmlns:svg="http://www.w3.org/2000/svg"><sodipodi:namedview
     id="namedview7"
     pagecolor="#ffffff"
     bordercolor="#000000"
     borderopacity="0.25"
     inkscape:showpageshadow="2"
     inkscape:pageopacity="0.0"
     inkscape:pagecheckerboard="true"
     inkscape:deskcolor="#d1d1d1"
     inkscape:document-units="px"
     showgrid="false"
     inkscape:zoom="0.70710678"
     inkscape:cx="724.78445"
     inkscape:cy="539.52247"
     inkscape:window-width="1920"
     inkscape:window-height="1049"
     inkscape:window-x="-9"
     inkscape:window-y="-9"
     inkscape:window-maximized="1"
     inkscape:current-layer="layer1"
     showguides="true" /><defs
     id="defs2" /><g
     inkscape:label="Layer 1"
     inkscape:groupmode="layer"
     id="layer1"
     transform="translate(-259.32928,-205.95771)"><path
       id="path23483"
       style="fill:#000000;stroke-width:0.0549278"
       d="m 259.32929,218.78017 c 0,0.0123 0.002,0.0255 0.002,0.0381 8e-5,0.002 -8e-5,0.005 0,0.006 h 4.2e-4 c 0.0501,1.27476 2.244,3.97324 4.82577,6.85248 2.32069,2.58807 5.61249,5.2843 6.1899,5.6228 0.32086,0.1881 0.70551,0.26501 1.0944,0.26177 0.85557,-0.006 1.73051,-0.39767 1.98359,-0.83599 0.36808,-0.63756 0.52957,-2.41075 0.51976,-3.78496 0,-1.88417 0.0776,-2.61777 0.31245,-2.85266 0.2349,-0.23497 1.58763,-0.2704 5.99221,-0.29779 1.672,-0.0154 4.26161,0.10868 6.18654,-0.4071 0.75341,-0.20188 1.10996,-0.66216 1.36121,-1.09734 0.2463,-0.42663 0.41371,-2.32908 0.40039,-3.52613 0.0133,-1.19709 -0.15411,-3.09914 -0.40039,-3.52572 -0.25125,-0.43517 -0.6078,-0.89546 -1.36121,-1.09734 -1.92493,-0.51578 -4.51454,-0.39174 -6.18654,-0.4071 -4.40458,-0.0274 -5.75731,-0.0628 -5.99221,-0.29779 -0.2349,-0.23489 -0.31245,-0.96849 -0.31245,-2.85265 0.01,-1.37422 -0.15168,-3.1474 -0.51976,-3.78497 -0.25308,-0.43832 -1.12802,-0.82968 -1.98359,-0.83599 -0.38889,-0.003 -0.77354,0.0737 -1.0944,0.26177 -0.57741,0.3385 -3.86921,3.03473 -6.1899,5.6228 -2.58177,2.87925 -4.77564,5.57772 -4.82577,6.85249 0,0 -4.2e-4,-1e-5 -4.2e-4,0 -6e-5,0.002 8e-5,0.005 0,0.006 -4.2e-4,0.0126 -0.002,0.0259 -0.002,0.0381 h 4.2e-4 c 0,0.006 3.4e-4,0.0131 4.1e-4,0.0197 -7e-5,0.006 -4.1e-4,0.0134 -4.1e-4,0.0201 z m 2.60722,-0.0201 c 8.1e-4,-0.0213 0.002,-0.0426 0.004,-0.0645 h -0.003 c 0.0608,-0.96742 2.1482,-3.23629 3.5764,-4.79101 1.4494,-1.5778 3.92942,-4.47713 5.743,-5.38699 0.57684,-0.24779 0.47998,1.94361 0.47998,3.60277 0,1.65917 -0.0587,3.05867 0.45904,3.57639 0.51771,0.51773 1.4263,0.34387 6.15094,0.34387 4.16153,0 5.61099,-0.006 5.90676,0.0323 0.54529,0.0718 1.22643,0.14372 1.43073,0.48374 0.23262,0.38721 0.28229,0.78198 0.28229,2.08662 2e-5,0.0192 -2.1e-4,0.035 -4.2e-4,0.0523 h -0.002 c 2.9e-4,0.0224 4.5e-4,0.0438 8.1e-4,0.0645 -3.9e-4,0.0208 -5.5e-4,0.0424 -8.1e-4,0.0649 h 0.002 c 2.1e-4,0.0173 4.4e-4,0.0331 4.2e-4,0.0524 0,1.30463 -0.0497,1.69941 -0.28229,2.08661 -0.2043,0.34002 -0.88544,0.41194 -1.43073,0.48375 -0.29577,0.0387 -1.74523,0.0323 -5.90676,0.0323 -4.72464,0 -5.63323,-0.17386 -6.15094,0.34386 -0.51772,0.51772 -0.45904,1.91722 -0.45904,3.5764 0,1.65917 0.0969,3.85057 -0.47998,3.60278 -1.81358,-0.90987 -4.2936,-3.80921 -5.743,-5.38701 -1.4282,-1.5547 -3.51558,-3.82358 -3.5764,-4.79099 h 0.003 c -0.002,-0.022 -0.003,-0.0435 -0.004,-0.0649 z" /></g></svg>
