<?xml version="1.0" encoding="UTF-8" standalone="no"?>
<!-- Created with Inkscape (http://www.inkscape.org/) -->

<svg
   width="129.05971"
   height="116.87372"
   viewBox="0 0 34.147048 30.922837"
   version="1.1"
   id="svg5"
   inkscape:version="1.2.1 (9c6d41e410, 2022-07-14)"
   sodipodi:docname="icons_progress.svg"
   xml:space="preserve"
   xmlns:inkscape="http://www.inkscape.org/namespaces/inkscape"
   xmlns:sodipodi="http://sodipodi.sourceforge.net/DTD/sodipodi-0.dtd"
   xmlns="http://www.w3.org/2000/svg"
   xmlns:svg="http://www.w3.org/2000/svg"><sodipodi:namedview
     id="namedview7"
     pagecolor="#ffffff"
     bordercolor="#000000"
     borderopacity="0.25"
     inkscape:showpageshadow="2"
     inkscape:pageopacity="0.0"
     inkscape:pagecheckerboard="true"
     inkscape:deskcolor="#d1d1d1"
     inkscape:document-units="px"
     showgrid="false"
     inkscape:zoom="0.70710678"
     inkscape:cx="724.78445"
     inkscape:cy="539.52247"
     inkscape:window-width="1920"
     inkscape:window-height="1049"
     inkscape:window-x="-9"
     inkscape:window-y="-9"
     inkscape:window-maximized="1"
     inkscape:current-layer="layer1"
     showguides="true" /><defs
     id="defs2" /><g
     inkscape:label="Layer 1"
     inkscape:groupmode="layer"
     id="layer1"
     transform="translate(-105.71005,-204.428)"><g
       id="g15330"
       transform="matrix(0.94855199,0,0,0.94855199,19.058024,110.21613)"><path
         id="path13112"
         style="color:#000000;fill:#000000;stroke-width:1.02637;stroke-linecap:round;stroke-linejoin:round;stroke-dasharray:600.15"
         d="m 94.477967,103.9626 -0.174658,0.21004 c -0.0065,0.007 -0.01288,0.0151 -0.01919,0.0227 l -0.169054,0.21409 c -0.0066,0.008 -0.01303,0.0163 -0.0194,0.0245 l -0.164138,0.21895 c -0.0059,0.008 -0.01179,0.0164 -0.01755,0.0247 l -0.160155,0.22165 c -0.006,0.008 -0.012,0.0167 -0.01786,0.0251 l -0.155023,0.2246 c -0.0061,0.009 -0.01216,0.018 -0.01807,0.0271 l -0.149819,0.22831 c -0.0055,0.009 -0.01092,0.0181 -0.01622,0.0273 l -0.143939,0.23122 c -0.0055,0.009 -0.01092,0.0181 -0.01622,0.0273 L 93.09771,105.927 c -0.0056,0.009 -0.01119,0.0179 -0.01663,0.027 l -0.133429,0.24013 c -0.005,0.009 -0.0099,0.0185 -0.01468,0.0279 l -0.127537,0.24304 c -0.0049,0.009 -0.0096,0.0183 -0.01427,0.0275 l -0.122744,0.24641 c -0.0049,0.009 -0.0096,0.0183 -0.01427,0.0275 l -0.117212,0.24972 c -0.0044,0.01 -0.0087,0.02 -0.01293,0.0301 l -0.111105,0.25071 c -0.0043,0.0101 -0.0085,0.0202 -0.01252,0.0304 l -0.106517,0.256 c -0.0042,0.009 -0.0084,0.0184 -0.01242,0.0277 l -0.09874,0.25986 c -0.0037,0.0102 -0.0072,0.0204 -0.01068,0.0306 l -0.09525,0.26071 c -0.0036,0.01 -0.007,0.0201 -0.01037,0.0302 l -0.08776,0.26423 c -0.0032,0.0102 -0.0063,0.0205 -0.0092,0.0308 l -0.08221,0.26754 c -0.0032,0.0102 -0.0063,0.0205 -0.0092,0.0308 l -0.07616,0.26854 c -0.0032,0.0102 -0.0063,0.0205 -0.0092,0.0308 l -0.06907,0.27248 c -0.0025,0.0103 -0.0049,0.0207 -0.0072,0.0311 l -0.06353,0.27578 c -0.0022,0.0104 -0.0043,0.0209 -0.0062,0.0314 l 0.001,2.8e-4 -0.05737,0.27679 c -0.0022,0.0104 -0.0043,0.0209 -0.0062,0.0314 l -0.04998,0.28031 c -0.0015,0.0105 -0.0029,0.0211 -0.0041,0.0316 l -0.04424,0.28173 c -0.0018,0.0106 -0.0035,0.0213 -0.0051,0.032 l -0.03654,0.28335 c -0.0012,0.0113 -0.0022,0.0225 -0.0031,0.0338 l -0.03038,0.28511 c -0.0012,0.0107 -0.0022,0.0215 -0.0031,0.0322 l -0.02299,0.28789 c -0.0012,0.0108 -0.0022,0.0217 -0.0031,0.0325 l -0.01724,0.2893 c -3.64e-4,0.0109 -5.97e-4,0.0218 -6.98e-4,0.0327 l -0.0092,0.29126 c -3.6e-4,0.0109 -5.89e-4,0.0218 -6.87e-4,0.0327 l -0.001,0.2929 c -3.75e-4,0.0107 -6.25e-4,0.0213 -7.49e-4,0.032 l 0.0041,0.29016 c 1.99e-4,0.011 5.32e-4,0.0221 10e-4,0.0331 l 0.01201,0.28764 c 1.99e-4,0.011 5.32e-4,0.0221 0.001,0.0331 l 0.01888,0.28519 c 8.97e-4,0.0111 0.0019,0.0222 0.0031,0.0333 l 0.02494,0.28469 c 8.94e-4,0.0112 0.0019,0.0224 0.0031,0.0336 l 0.0312,0.28306 c 0.0016,0.0108 0.0033,0.0216 0.0051,0.0323 l 0.03808,0.2806 c 0.0016,0.0107 0.0033,0.0213 0.0051,0.0319 l 0.04475,0.27856 c 0.0016,0.0105 0.0033,0.021 0.0051,0.0315 l 0.05337,0.27822 c 0.0016,0.0106 0.0033,0.0213 0.0051,0.0319 l 0.0583,0.2748 c 0.0026,0.0101 0.0054,0.0202 0.0082,0.0302 l 0.06456,0.27241 c 0.0023,0.0109 0.0047,0.0217 0.0072,0.0325 l 0.07072,0.26927 c 0.0026,0.0101 0.0054,0.0202 0.0082,0.0302 l 0.07739,0.26871 c 0.0029,0.0104 0.006,0.0208 0.0092,0.0312 l 0.08303,0.26375 c 0.0029,0.0103 0.006,0.0206 0.0092,0.0309 l 0.0894,0.26285 c 0.0038,0.01 0.0078,0.0196 0.0118,0.0294 l 0.09402,0.25984 c 0.004,0.01 0.008,0.0195 0.01221,0.0292 l 0.100584,0.25778 c 0.004,0.01 0.008,0.0195 0.01221,0.0292 l 0.107133,0.25499 c 0.004,0.01 0.008,0.0195 0.01221,0.0292 l 0.112336,0.24967 c 0.0046,0.0101 0.0093,0.0201 0.01416,0.0301 l 0.117325,0.24625 c 0.0045,0.01 0.009,0.0199 0.01375,0.0298 l 0.123925,0.24421 c 0.0048,0.009 0.0097,0.0186 0.01468,0.0278 l 0.130473,0.24141 c 0.0048,0.009 0.0097,0.0186 0.01468,0.0278 l 0.135471,0.23799 c 0.0047,0.009 0.0094,0.0183 0.01427,0.0274 l 0.140172,0.23571 c 0.0055,0.009 0.01112,0.0175 0.01683,0.0261 l 0.145724,0.23 c 0.0055,0.009 0.01112,0.0175 0.01683,0.0261 l 0.149399,0.22894 c 0.0056,0.009 0.01139,0.0177 0.01724,0.0264 l 0.157127,0.22228 c 0.0055,0.009 0.01112,0.0175 0.01683,0.0261 l 0.161202,0.22157 c 0.0058,0.008 0.01175,0.0161 0.01776,0.0241 l 0.166416,0.21625 c 0.0064,0.008 0.01284,0.0165 0.0194,0.0247 l 0.169895,0.21296 c 0.0064,0.008 0.01298,0.0153 0.0196,0.0229 l 0.176044,0.20982 c 0.0066,0.008 0.01319,0.0151 0.01991,0.0225 l 0.17941,0.20502 c 0.0071,0.008 0.01421,0.0155 0.02145,0.0231 l 0.184614,0.19971 c 0.0073,0.008 0.01469,0.0154 0.02217,0.023 l 0.187364,0.19647 c 0.0073,0.007 0.01464,0.0139 0.02207,0.0207 l 0.194878,0.1917 c 0.0071,0.008 0.01421,0.0155 0.02145,0.0231 l 0.197793,0.18582 c 0.0079,0.007 0.01593,0.0146 0.02402,0.0218 l 0.202832,0.18315 c 0.0074,0.007 0.01491,0.0142 0.02248,0.0211 l 0.207297,0.17789 c 0.0075,0.006 0.01505,0.0129 0.02268,0.0192 l 0.210776,0.17459 c 0.0081,0.007 0.01628,0.013 0.02453,0.0194 l 0.215857,0.16778 c 0.0081,0.007 0.01628,0.013 0.02453,0.0194 l 0.218956,0.16415 c 0.0082,0.006 0.01643,0.0118 0.02474,0.0175 l 0.22417,0.15882 c 0.0083,0.006 0.0167,0.012 0.02515,0.0179 l 0.227475,0.15328 c 0.0082,0.006 0.01643,0.0118 0.02474,0.0175 l 0.230431,0.14814 c 0.009,0.006 0.01799,0.0122 0.0271,0.0181 l 0.233736,0.1426 c 0.009,0.006 0.01814,0.0109 0.0273,0.0162 l 0.238724,0.13919 c 0.0091,0.005 0.01829,0.01 0.02751,0.0143 l 0.2417,0.13406 c 0.0092,0.005 0.01849,0.009 0.02782,0.0139 l 0.245632,0.12696 c 0.009,0.006 0.01814,0.0109 0.0273,0.0162 l 0.248516,0.12107 c 0.0093,0.004 0.0187,0.008 0.02812,0.012 l 0.252015,0.11778 c 0.0098,0.004 0.01972,0.009 0.02966,0.0126 l 0.255556,0.11033 c 0.0098,0.004 0.01972,0.009 0.02966,0.0126 l 0.256553,0.10422 c 0.01015,0.004 0.02035,0.007 0.03059,0.0107 l 0.261427,0.0994 c 0.01015,0.004 0.02035,0.007 0.03059,0.0107 l 0.26282,0.0935 c 0.0108,0.004 0.0216,0.007 0.0325,0.0109 l 0.26635,0.0861 c 0.0102,0.003 0.0205,0.006 0.0308,0.009 l 0.26966,0.0806 c 0.0102,0.003 0.0205,0.006 0.0308,0.009 l 0.27297,0.075 c 0.0106,0.002 0.0212,0.005 0.0318,0.007 l 0.27595,0.0699 c 0.0104,0.002 0.0209,0.004 0.0314,0.006 l 0.2779,0.0618 c 0.0103,0.002 0.0207,0.005 0.0311,0.007 l 0.28177,0.054 c 0.0105,0.002 0.0211,0.003 0.0317,0.005 l 0.28277,0.0478 c 0.0112,0.002 0.0224,0.003 0.0336,0.005 l 0.28458,0.0425 c 0.0115,0.001 0.023,0.002 0.0346,0.003 l 0.28736,0.0351 c 0.0106,0.002 0.0213,0.003 0.032,0.005 l 0.28936,0.027 0.0342,0.003 0.29096,0.0194 c 0.0107,0.001 0.0215,0.002 0.0322,0.003 l 0.28817,0.0128 c 0.0117,4.8e-4 0.0234,8.2e-4 0.0351,0.001 l 0.28729,0.006 c 0.0109,3.6e-4 0.0218,5.9e-4 0.0327,6.9e-4 l 0.28679,5.2e-4 c 0.011,-2e-4 0.0221,-5.3e-4 0.0331,-0.001 l 0.28624,-0.006 c 0.0104,-2.1e-4 0.0207,-5.5e-4 0.0311,-0.001 l 0.28632,-0.0145 c 0.0104,-2.1e-4 0.0207,-5.5e-4 0.0311,-10e-4 l 0.28351,-0.021 c 0.0111,-8.6e-4 0.0222,-0.002 0.0333,-0.003 l 0.28071,-0.0276 c 0.0106,-10e-4 0.0212,-0.003 0.0317,-0.004 l 0.27982,-0.0339 c 0.0106,-0.001 0.0211,-0.003 0.0317,-0.004 l 0.27928,-0.0406 c 0.0106,-0.002 0.0213,-0.003 0.0319,-0.005 l 0.27492,-0.0478 c 0.0106,-0.002 0.0213,-0.003 0.0319,-0.005 l 0.27369,-0.0537 c 0.0108,-0.002 0.0216,-0.003 0.0323,-0.005 l 0.27122,-0.0607 c 0.0107,-0.002 0.0214,-0.005 0.0321,-0.007 l 0.26821,-0.0653 c 0.0109,-0.002 0.0217,-0.005 0.0325,-0.007 l 0.26828,-0.0736 c 0.0101,-0.003 0.0202,-0.005 0.0302,-0.008 l 0.26486,-0.0786 0.0312,-0.009 0.26206,-0.0851 c 0.0103,-0.003 0.0206,-0.007 0.0308,-0.0103 l 0.25906,-0.0898 c 0.01,-0.004 0.0197,-0.008 0.0295,-0.0118 l 0.25849,-0.0965 c 0.01,-0.003 0.019,-0.007 0.0285,-0.0103 l 0.2561,-0.1027 c 0.01,-0.004 0.0197,-0.008 0.0295,-0.0126 l 0.25078,-0.10791 c 0.01,-0.004 0.0195,-0.008 0.0292,-0.0122 l 0.24989,-0.11423 c 0.009,-0.004 0.0184,-0.008 0.0275,-0.0128 l 0.24687,-0.11888 c 0.009,-0.005 0.0186,-0.01 0.0278,-0.0147 l 0.2442,-0.12394 c 0.009,-0.005 0.0183,-0.009 0.0274,-0.0143 l 0.23985,-0.1311 c 0.009,-0.005 0.0183,-0.009 0.0274,-0.0143 l 0.23642,-0.13609 c 0.009,-0.005 0.0187,-0.0109 0.028,-0.0166 l 0.23308,-0.14033 c 0.009,-0.006 0.0177,-0.0114 0.0265,-0.0172 l 0.23005,-0.14498 c 0.009,-0.006 0.0177,-0.0114 0.0265,-0.0172 l 0.22531,-0.15248 c 0.009,-0.005 0.0175,-0.0111 0.0261,-0.0168 l 0.22228,-0.15713 c 0.009,-0.006 0.0177,-0.0114 0.0265,-0.0172 l 0.21926,-0.16177 c 0.008,-0.006 0.0165,-0.0128 0.0247,-0.0194 l 0.21429,-0.16738 c 0.008,-0.006 0.0163,-0.0125 0.0244,-0.0189 l 0.21357,-0.17147 c 0.008,-0.007 0.0151,-0.0132 0.0225,-0.0199 l 0.20826,-0.17666 c 0.008,-0.006 0.0153,-0.013 0.0229,-0.0196 l 0.20484,-0.18166 c 0.008,-0.006 0.0153,-0.013 0.0229,-0.0196 l 0.0356,-0.0338 c 0,0 8.75549,6.92405 10.85359,9.10531 0.6234,0.64811 2.13021,0.89438 2.65931,0.30856 0.5291,-0.58581 0.60513,-1.2453 -0.18838,-2.49538 -1.34837,-2.12419 -11.21621,-9.40195 -11.21621,-9.40195 l 0.004,-0.006 c 0.006,-0.009 0.0122,-0.018 0.0181,-0.0271 l 0.14681,-0.23296 c 0.006,-0.009 0.012,-0.0177 0.0178,-0.0267 l 0.14317,-0.23605 c 0.006,-0.009 0.0109,-0.0181 0.0162,-0.0273 l 0.13572,-0.23956 c 0.006,-0.01 0.0113,-0.0192 0.0168,-0.0289 l 0.13173,-0.24225 c 0.005,-0.01 0.0101,-0.0198 0.0149,-0.0298 l 0.12662,-0.24522 c 0.005,-0.01 0.0101,-0.0199 0.0149,-0.0299 l 0.11973,-0.25106 c 0.005,-0.01 0.0101,-0.0199 0.0149,-0.0299 l 0.11384,-0.25396 c 0.005,-0.01 0.0101,-0.0198 0.0149,-0.0298 l 0.10864,-0.25767 c 0.004,-0.01 0.009,-0.02 0.0129,-0.0301 l 0.10311,-0.26097 c 0.004,-0.0101 0.008,-0.0202 0.0111,-0.0303 l 0.0972,-0.26388 c 0.004,-0.0101 0.008,-0.0202 0.0111,-0.0303 l 0.0921,-0.26759 c 0.003,-0.0102 0.006,-0.0205 0.009,-0.0308 l 0.085,-0.27077 c 0.004,-0.0102 0.007,-0.0204 0.0107,-0.0306 l 0.0794,-0.27409 c 0.003,-0.0102 0.006,-0.0205 0.009,-0.0308 l 0.0721,-0.27762 0.009,-0.0312 0.0662,-0.27903 c 0.002,-0.011 0.005,-0.022 0.007,-0.033 l 0.0584,-0.2829 c 0.002,-0.0103 0.005,-0.0206 0.007,-0.031 l 0.0526,-0.28431 c 0.002,-0.0113 0.003,-0.0226 0.005,-0.0339 l 0.0472,-0.28686 c 0.002,-0.0106 0.003,-0.0213 0.005,-0.032 l 0.0395,-0.28849 c 0.001,-0.0114 0.002,-0.0227 0.003,-0.0341 l 0.0332,-0.28834 c 0.001,-0.0107 0.002,-0.0215 0.003,-0.0322 l 0.0249,-0.28767 c 10e-4,-0.0108 0.002,-0.0217 0.003,-0.0325 l 0.0184,-0.28487 c 4.5e-4,-0.0116 7.6e-4,-0.0231 9.2e-4,-0.0347 l 0.0103,-0.28494 c 3.6e-4,-0.0109 5.9e-4,-0.0219 6.9e-4,-0.0328 l 0.006,-0.28348 c -5.3e-4,-0.0111 -0.001,-0.0222 -0.002,-0.0333 l -0.002,-0.28356 c 2.5e-4,-0.0108 3.6e-4,-0.0216 3.5e-4,-0.0324 l -0.0109,-0.28322 c -2e-4,-0.011 -5.3e-4,-0.0221 -0.001,-0.0331 l -0.0155,-0.28021 c -8.6e-4,-0.0112 -0.002,-0.0224 -0.003,-0.0336 l -0.0219,-0.27931 c -10e-4,-0.0106 -0.003,-0.0212 -0.004,-0.0317 l -0.0301,-0.27939 c -0.001,-0.0106 -0.003,-0.0211 -0.004,-0.0317 l -0.0351,-0.27596 c -0.002,-0.0106 -0.003,-0.0213 -0.005,-0.0319 l -0.0418,-0.27541 c -0.002,-0.0106 -0.003,-0.0213 -0.005,-0.0319 l -0.0503,-0.27283 c -0.002,-0.0108 -0.003,-0.0216 -0.005,-0.0323 l -0.054,-0.27177 c -0.003,-0.0101 -0.005,-0.0202 -0.008,-0.0302 l -0.0609,-0.26933 c -0.002,-0.0109 -0.005,-0.0217 -0.007,-0.0325 l -0.0678,-0.26687 c -0.003,-0.0101 -0.005,-0.0202 -0.008,-0.0302 l -0.0742,-0.26597 c -0.003,-0.0102 -0.005,-0.0204 -0.008,-0.0306 l -0.0804,-0.26359 c -0.003,-0.0103 -0.007,-0.0206 -0.0103,-0.0308 l -0.0854,-0.26017 c -0.003,-0.01 -0.007,-0.0192 -0.0103,-0.0288 l -0.0921,-0.25961 c -0.003,-0.01 -0.006,-0.0193 -0.009,-0.0289 l -0.0967,-0.25659 c -0.004,-0.01 -0.008,-0.0195 -0.0122,-0.0292 l -0.10327,-0.25381 c -0.004,-0.009 -0.008,-0.0184 -0.0128,-0.0275 l -0.10792,-0.25079 c -0.005,-0.01 -0.01,-0.0199 -0.0145,-0.0297 l -0.11445,-0.24799 c -0.004,-0.009 -0.008,-0.0184 -0.0128,-0.0275 l -0.1195,-0.24531 c -0.005,-0.009 -0.009,-0.0183 -0.0143,-0.0274 l -0.12604,-0.24252 c -0.005,-0.009 -0.01,-0.0186 -0.0147,-0.0278 l -0.13104,-0.2391 c -0.005,-0.009 -0.01,-0.0173 -0.0149,-0.0259 l -0.13799,-0.23665 c -0.005,-0.009 -0.01,-0.0173 -0.0149,-0.0259 l -0.14263,-0.23363 c -0.005,-0.009 -0.0111,-0.0175 -0.0168,-0.0261 l -0.14749,-0.22872 c -0.006,-0.009 -0.0114,-0.0177 -0.0172,-0.0265 l -0.15249,-0.2253 c -0.006,-0.009 -0.0111,-0.0175 -0.0168,-0.0261 l -0.15713,-0.22227 c -0.006,-0.008 -0.0128,-0.0165 -0.0193,-0.0247 l -0.16218,-0.21962 c -0.006,-0.008 -0.0126,-0.0163 -0.019,-0.0244 l -0.16703,-0.21469 c -0.006,-0.008 -0.013,-0.0163 -0.0197,-0.0243 l -0.17224,-0.20938 c -0.007,-0.008 -0.0141,-0.0167 -0.0213,-0.025 l -0.17688,-0.20635 c -0.006,-0.008 -0.0128,-0.0165 -0.0194,-0.0247 l -0.18441,-0.2016 c -0.006,-0.008 -0.0129,-0.0153 -0.0195,-0.0229 l -0.18654,-0.19992 c -0.007,-0.007 -0.0149,-0.0142 -0.0225,-0.0211 l -0.19139,-0.19501 c -0.007,-0.008 -0.0147,-0.0154 -0.0222,-0.023 l -0.19699,-0.19003 c -0.007,-0.007 -0.0144,-0.0142 -0.0217,-0.0211 l -0.20163,-0.18702 c -0.008,-0.006 -0.0151,-0.0129 -0.0227,-0.0192 l -0.20726,-0.18203 c -0.007,-0.007 -0.0147,-0.0139 -0.0221,-0.0207 l -0.20983,-0.17656 c -0.008,-0.007 -0.0165,-0.0133 -0.0249,-0.0198 l -0.21481,-0.17314 c -0.008,-0.007 -0.0161,-0.0133 -0.0242,-0.0198 l -0.21873,-0.16604 c -0.008,-0.007 -0.0163,-0.013 -0.0245,-0.0194 l -0.22298,-0.16268 c -0.008,-0.006 -0.0167,-0.012 -0.0251,-0.0179 l -0.22629,-0.15714 c -0.009,-0.006 -0.018,-0.0122 -0.0271,-0.0181 l -0.23189,-0.15216 c -0.009,-0.006 -0.0178,-0.0124 -0.0268,-0.0185 l -0.2352,-0.14662 c -0.009,-0.006 -0.0181,-0.0109 -0.0273,-0.0162 l -0.23816,-0.14148 c -0.009,-0.006 -0.0181,-0.0109 -0.0273,-0.0162 l -0.24302,-0.13658 c -0.009,-0.005 -0.0183,-0.0106 -0.0276,-0.0158 l -0.24634,-0.13102 c -0.01,-0.005 -0.0198,-0.0101 -0.0298,-0.0149 l -0.24964,-0.1255 c -0.01,-0.005 -0.0198,-0.01 -0.0298,-0.0142 l -0.25295,-0.11996 c -0.01,-0.004 -0.02,-0.009 -0.0301,-0.0129 l -0.25627,-0.11441 c -0.01,-0.004 -0.02,-0.009 -0.0301,-0.0129 l -0.26209,-0.10753 c -0.01,-0.004 -0.0198,-0.009 -0.0297,-0.0126 l -0.2654,-0.10202 c -0.01,-0.004 -0.02,-0.009 -0.0301,-0.0129 l -0.2683,-0.0961 c -0.0101,-0.004 -0.0202,-0.008 -0.0303,-0.0111 l -0.27223,-0.08902 c -0.0102,-0.0037 -0.0204,-0.0072 -0.0306,-0.01065 l -0.27519,-0.08388 c -0.0102,-0.003 -0.0205,-0.0059 -0.0308,-0.0087 l -0.27851,-0.07833 c -0.0102,-0.003 -0.0205,-0.0059 -0.0308,-0.0087 l -0.27974,-0.07034 c -0.0111,-0.0026 -0.0222,-0.0051 -0.0334,-0.0074 l -0.28345,-0.06514 c -0.73139,-0.167103 -1.45969,0.290622 -1.62632,1.02212 -0.16738,0.73142 0.29022,1.45995 1.02178,1.62673 l 0.26793,0.0596 0.25099,0.0641 0.2458,0.0694 0.24228,0.0727 0.24108,0.0807 0.2362,0.0856 0.23501,0.0894 0.23149,0.0969 0.2261,0.1 0.22545,0.10565 0.22021,0.11097 0.21884,0.11674 0.21417,0.11975 0.21127,0.12563 0.20756,0.13083 0.20483,0.13407 0.1996,0.13939 0.19631,0.14493 0.19452,0.1462 0.18835,0.15348 0.18561,0.15673 0.18096,0.15973 0.17787,0.16338 0.17531,0.16885 0.1697,0.17384 0.16528,0.17494 0.16007,0.18027 0.15732,0.1835 0.15269,0.18652 0.14959,0.19016 0.14339,0.19255 0.14031,0.1962 0.1351,0.2015 0.12871,0.20167 0.12603,0.20564 0.12139,0.20866 0.11633,0.21133 0.11176,0.2151 0.10671,0.21776 0.10069,0.21826 0.0958,0.22169 0.0934,0.22526 0.0842,0.22714 0.082,0.22883 0.076,0.22933 0.071,0.23274 0.0641,0.23519 0.0596,0.2363 0.0554,0.23967 0.0488,0.24022 0.0427,0.24072 0.0374,0.24378 0.0318,0.24463 0.025,0.24518 0.0204,0.24894 0.0141,0.24909 0.008,0.24958 0.003,0.2511 -0.005,0.25103 -0.009,0.25249 -0.0156,0.25453 -0.0221,0.25395 -0.0286,0.25597 -0.0359,0.25471 -0.041,0.25587 -0.0459,0.25251 -0.0535,0.25089 -0.0596,0.24573 -0.063,0.24489 -0.0707,0.24327 -0.0756,0.23764 -0.0794,0.23721 -0.0873,0.23333 -0.0905,0.2306 -0.0967,0.22959 -0.1012,0.22432 -0.10719,0.22067 -0.11286,0.22002 -0.11555,0.21495 -0.12184,0.21172 -0.12696,0.20874 -0.12988,0.20561 -0.13614,0.20235 -0.13939,0.1996 -0.1443,0.19475 -0.14795,0.19166 -0.15308,0.18869 -0.1565,0.18371 -0.16169,0.18 -0.16465,0.17609 -0.1687,0.17267 -0.17321,0.16814 -0.17725,0.16471 -0.17987,0.16041 -0.18349,0.15734 -0.18786,0.15016 -0.19103,0.14815 -0.19451,0.14243 -0.1981,0.14008 -0.20095,0.13279 -0.20222,0.13102 -0.20698,0.1235 -0.21097,0.12083 -0.2111,0.11444 -0.21666,0.11112 -0.21749,0.10556 -0.22022,0.0998 -0.22358,0.0956 -0.22468,0.0911 -0.2271,0.0849 -0.23057,0.0791 -0.23351,0.0752 -0.23432,0.0704 -0.23709,0.064 -0.23798,0.0576 -0.23911,0.0532 -0.24442,0.0479 -0.24226,0.0421 -0.24582,0.0356 -0.24792,0.0283 -0.24742,0.0252 -0.25205,0.0192 -0.25078,0.012 -0.25384,0.006 -0.25412,-0.001 -0.25482,-0.005 -0.25614,-0.0121 -0.25816,-0.0187 -0.25753,-0.0243 -0.25576,-0.0306 -0.25224,-0.038 -0.25139,-0.0415 -0.24752,-0.0493 -0.24497,-0.0547 -0.24567,-0.0588 -0.23991,-0.0664 -0.23842,-0.0714 -0.2365,-0.0753 -0.23412,-0.0831 -0.22948,-0.0861 -0.22847,-0.0923 -0.22707,-0.098 -0.22185,-0.10332 -0.219117,-0.10656 -0.217704,-0.1123 -0.2125,-0.11763 -0.209534,-0.12277 -0.208344,-0.12663 -0.20354,-0.13229 -0.200389,-0.13519 -0.197084,-0.14072 -0.194755,-0.1443 -0.18953,-0.14962 -0.18605,-0.15292 -0.183495,-0.1584 -0.178425,-0.16107 -0.175756,-0.16506 -0.172452,-0.1706 -0.16814,-0.17321 -0.162188,-0.17859 -0.160411,-0.17986 -0.155209,-0.18518 -0.149809,-0.18826 -0.147818,-0.19143 -0.14242,-0.19452 -0.137852,-0.19828 -0.132915,-0.20244 -0.128153,-0.20396 -0.123288,-0.20889 -0.119265,-0.21033 -0.115765,-0.21364 -0.109226,-0.21643 -0.104598,-0.21945 -0.09802,-0.22149 -0.09494,-0.22589 -0.09083,-0.2266 -0.08396,-0.22905 -0.07739,-0.23184 -0.07431,-0.23548 -0.06836,-0.23598 -0.06107,-0.23883 -0.05922,-0.24011 -0.05009,-0.24275 -0.04578,-0.24536 -0.04136,-0.24722 -0.03274,-0.2468 -0.03018,-0.25228 -0.02217,-0.25106 -0.01704,-0.25373 -0.0082,-0.25632 -0.0041,-0.25478 0.0021,-0.26021 0.0082,-0.25658 0.01427,-0.25705 0.01971,-0.25451 0.02802,-0.25443 0.03141,-0.24944 0.03931,-0.2497 0.04444,-0.24675 0.04865,-0.24598 0.05645,-0.24209 0.06189,-0.24103 0.06548,-0.23793 0.0739,-0.23638 0.07636,-0.23357 0.08272,-0.23032 0.08806,-0.22926 0.0936,-0.22594 0.09915,-0.22264 0.103099,-0.21997 0.108108,-0.21848 0.113989,-0.21559 0.117407,-0.2106 0.122775,-0.20953 0.128307,-0.20623 0.13194,-0.20313 0.136867,-0.19828 0.140726,-0.19708 0.145642,-0.19222 0.151924,-0.18898 0.152519,-0.18639 0.158175,-0.18158 0.163378,-0.17787 0.166385,-0.17324 0.170193,-0.17279 0.174946,-0.16527 0.178938,-0.1626 0.181196,-0.15789 0.184849,-0.1548 0.190495,-0.14999 0.191491,-0.14708 0.196201,-0.14029 0.199763,-0.13798 0.202853,-0.13257 0.20586,-0.12792 0.208887,-0.12329 0.212295,-0.1183 0.214923,-0.114 0.217765,-0.1067 0.221336,-0.10437 0.22443,-0.099 0.22526,-0.0934 0.22984,-0.0882 0.23135,-0.0833 0.23379,-0.0764 0.23739,-0.0741 0.23956,-0.066 0.24096,-0.0627 0.24353,-0.0543 0.24654,-0.0496 0.24766,-0.0452 0.25011,-0.0383 0.2506,-0.0322 0.25633,-0.0267 0.25453,-0.0214 0.27613,-0.0148 c 0.74808,-0.0422 1.32059,-0.68237 1.27929,-1.4305 -0.0406,-0.749936 -0.68238,-1.324424 -1.43223,-1.282156 l -0.29096,0.01751 c -0.011,2.65e-4 -0.0221,6.65e-4 -0.0331,0.0012 l -0.28815,0.02406 c -0.0111,8.97e-4 -0.0222,0.0019 -0.0333,0.0031 l -0.2857,0.03101 c -0.0111,8.97e-4 -0.0221,0.0019 -0.0332,0.0031 l -0.28521,0.03699 c -0.0105,9.79e-4 -0.0209,0.0021 -0.0313,0.0033 l -0.28391,0.04365 c -0.0107,0.0017 -0.0213,0.0036 -0.0319,0.0056 l -0.27922,0.05042 c -0.0108,0.0016 -0.0216,0.0034 -0.0323,0.0053 l -0.27867,0.05715 c -0.0109,0.0023 -0.0217,0.0047 -0.0325,0.0072 l -0.27374,0.06201 c -0.0107,0.0024 -0.0214,0.0049 -0.0321,0.0075 l -0.27383,0.0703 c -0.0101,0.0025 -0.0202,0.0051 -0.0302,0.0078 l -0.27096,0.07758 c -0.0101,0.0025 -0.0202,0.0051 -0.0302,0.0078 l -0.26801,0.08148 c -0.0103,0.0032 -0.0206,0.0066 -0.0308,0.01006 l -0.26481,0.08837 c -0.0103,0.003 -0.0206,0.007 -0.0308,0.0103 l -0.262349,0.0953 c -0.01044,0.003 -0.02084,0.006 -0.0312,0.009 l -0.257045,0.10049 c -0.01052,0.004 -0.02099,0.008 -0.03141,0.0116 l -0.255916,0.10495 c -0.01008,0.005 -0.02011,0.009 -0.03007,0.0142 l -0.251574,0.11212 c -0.0098,0.004 -0.01948,0.008 -0.02915,0.0122 l -0.250856,0.11621 c -0.0092,0.005 -0.01833,0.009 -0.02741,0.0143 l -0.246114,0.12371 c -0.01,0.004 -0.0199,0.009 -0.02976,0.0138 l -0.242676,0.1287 c -0.0093,0.005 -0.01853,0.01 -0.02771,0.0147 l -0.240295,0.13489 c -0.0092,0.005 -0.01832,0.009 -0.0274,0.0143 l -0.235707,0.14016 c -0.0094,0.005 -0.01875,0.011 -0.02802,0.0166 l -0.23196,0.14475 c -0.0088,0.005 -0.01744,0.0111 -0.02607,0.0168 l -0.229271,0.1498 c -0.0088,0.005 -0.01744,0.0111 -0.02607,0.0168 l -0.225864,0.15479 c -0.0081,0.006 -0.01621,0.0113 -0.02422,0.017 l -0.223462,0.16099 c -0.008,0.006 -0.01594,0.0114 -0.02381,0.0173 l -0.21794,0.16429 c -0.0083,0.006 -0.01657,0.0128 -0.02474,0.0193 l -0.212952,0.1699 c -0.0084,0.007 -0.01671,0.0141 -0.02494,0.0213 l -0.209595,0.17415 c -0.0077,0.006 -0.01533,0.013 -0.02289,0.0196 l -0.206917,0.17919 c -0.0076,0.007 -0.01506,0.0132 -0.02248,0.0199 l -0.201251,0.184 c -0.0079,0.007 -0.01569,0.0145 -0.0234,0.0219 l -0.196469,0.18737 c -0.0076,0.007 -0.0152,0.0145 -0.02268,0.0218 l -0.191141,0.19258 c -0.0078,0.007 -0.01548,0.0143 -0.02309,0.0215 l -0.188473,0.19762 c -0.0072,0.008 -0.01433,0.0161 -0.02135,0.0243 l -0.182582,0.20053 c -0.0071,0.007 -0.01417,0.0144 -0.02114,0.0217 l -0.177614,0.20614 c -0.0072,0.008 -0.01433,0.0161 -0.02135,0.0243 z"
         sodipodi:nodetypes="ccccccccccccccccccccccccccccccccccccccccccccccccccccccccccccccccccccccccccccccccccccccccccccccccccccccccccccccccccccccccccccccccccccccccccccccccccccccccccccccccccccccccccccccccccccccccccccccccccccccccccccccccccccccccccccccccccccccccccsccccccccccccccccccccccccszsccccccccccccccccccccccccccccccccccccccccccccccccccccccccccccccccccccccccccccccccccccccccccccccccccccccccccccccccccccccccccccccccccccccccccccccccccccccccccccccccccccccccccccccccccccccccccccccccccccccccccccccccccccccccccccccccccccccccccccccccccccccccccccccccccccccccccccccccccccccccccccccccccccccccccccccccccccccccccccccccccccccccccccccccccccccccccccccccccccccccccccccccccccccccccccccccccccccccccccccccccccccccccccccccccccccccccccccccccccccccccccccccccccccccccccccccccccccccccccccccccccccccccccccccc" /><path
         style="color:#000000;fill:#000000;stroke-linecap:round;stroke-linejoin:round;stroke-dasharray:363.401"
         d="m 105.60978,103.5185 a 0.82217002,0.82217002 0 0 0 -0.91015,0.72461 0.82217002,0.82217002 0 0 0 0.72461,0.91016 l 0.14843,0.0156 0.14063,0.0195 0.14062,0.0215 0.13868,0.0254 0.14062,0.0273 0.13867,0.0293 0.13672,0.0332 0.13867,0.0371 0.13672,0.0391 0.13477,0.041 0.13672,0.043 0.13281,0.0469 0.13476,0.0508 0.13086,0.0508 0.13282,0.0547 0.1289,0.0586 0.13086,0.0586 0.12696,0.0625 0.12695,0.0645 0.125,0.0684 0.125,0.0703 0.12109,0.0723 0.1211,0.0742 0.12109,0.0762 0.11719,0.0801 0.11523,0.082 0.11524,0.084 0.11328,0.0859 0.10937,0.0879 0.10938,0.0898 0.10742,0.0937 0.10547,0.0937 0.10351,0.0977 0.10157,0.0996 0.0977,0.10156 0.0977,0.10351 0.0957,0.10352 0.0918,0.10742 0.0918,0.10938 0.0879,0.11132 0.0859,0.11329 0.084,0.11523 0.082,0.11523 0.0801,0.11914 0.0781,0.11915 0.0742,0.12109 0.0723,0.12109 0.0703,0.125 0.0684,0.125 0.0645,0.12696 0.0625,0.12695 0.0605,0.12891 0.0586,0.13085 0.0547,0.13086 0.0508,0.13282 0.0508,0.13281 0.0469,0.13476 0.0449,0.13477 0.041,0.13477 0.0391,0.13671 0.0351,0.13672 0.0332,0.13868 0.0293,0.13867 0.0274,0.13672 0.0351,0.19921 0.0274,0.19727 0.0234,0.19922 0.0176,0.21289 a 0.82217002,0.82217002 0 0 0 0.89063,0.74805 0.82217002,0.82217002 0 0 0 0.74804,-0.88868 l -0.0195,-0.22265 a 0.82225224,0.82225224 0 0 0 -0.002,-0.0234 l -0.0254,-0.22266 a 0.82225224,0.82225224 0 0 0 -0.002,-0.0234 l -0.0332,-0.22071 a 0.82225224,0.82225224 0 0 0 -0.002,-0.0234 l -0.0391,-0.22071 a 0.82225224,0.82225224 0 0 0 -0.004,-0.0195 l -0.0293,-0.15625 a 0.82225224,0.82225224 0 0 0 -0.004,-0.0156 l -0.0332,-0.1543 a 0.82225224,0.82225224 0 0 0 -0.004,-0.0176 l -0.0371,-0.15429 a 0.82225224,0.82225224 0 0 0 -0.004,-0.0156 l -0.041,-0.15234 a 0.82225224,0.82225224 0 0 0 -0.004,-0.0176 l -0.043,-0.15235 a 0.82225224,0.82225224 0 0 0 -0.006,-0.0156 l -0.0469,-0.15234 a 0.82225224,0.82225224 0 0 0 -0.004,-0.0156 l -0.0488,-0.15039 a 0.82225224,0.82225224 0 0 0 -0.006,-0.0156 l -0.0527,-0.14844 a 0.82225224,0.82225224 0 0 0 -0.006,-0.0156 l -0.0547,-0.14843 a 0.82225224,0.82225224 0 0 0 -0.006,-0.0156 l -0.0586,-0.14844 a 0.82225224,0.82225224 0 0 0 -0.006,-0.0137 l -0.0625,-0.14648 a 0.82225224,0.82225224 0 0 0 -0.006,-0.0156 l -0.0645,-0.14453 a 0.82225224,0.82225224 0 0 0 -0.006,-0.0156 l -0.0664,-0.14258 a 0.82225224,0.82225224 0 0 0 -0.008,-0.0156 l -0.0703,-0.14258 a 0.82225224,0.82225224 0 0 0 -0.006,-0.0137 l -0.0742,-0.14062 a 0.82225224,0.82225224 0 0 0 -0.008,-0.0156 l -0.0742,-0.13867 a 0.82225224,0.82225224 0 0 0 -0.008,-0.0137 l -0.0781,-0.13867 a 0.82225224,0.82225224 0 0 0 -0.008,-0.0137 l -0.082,-0.13671 a 0.82225224,0.82225224 0 0 0 -0.008,-0.0137 l -0.084,-0.13476 a 0.82225224,0.82225224 0 0 0 -0.008,-0.0137 l -0.0859,-0.13282 a 0.82225224,0.82225224 0 0 0 -0.01,-0.0137 l -0.0879,-0.13281 a 0.82225224,0.82225224 0 0 0 -0.01,-0.0117 l -0.0918,-0.13086 a 0.82225224,0.82225224 0 0 0 -0.01,-0.0137 l -0.0937,-0.12695 a 0.82225224,0.82225224 0 0 0 -0.01,-0.0137 l -0.0957,-0.125 a 0.82225224,0.82225224 0 0 0 -0.01,-0.0137 l -0.0996,-0.12304 a 0.82225224,0.82225224 0 0 0 -0.01,-0.0137 l -0.10157,-0.12109 a 0.82225224,0.82225224 0 0 0 -0.0117,-0.0137 l -0.10352,-0.11914 a 0.82225224,0.82225224 0 0 0 -0.01,-0.0117 l -0.10742,-0.11914 a 0.82225224,0.82225224 0 0 0 -0.0117,-0.0117 l -0.10742,-0.11523 a 0.82225224,0.82225224 0 0 0 -0.0117,-0.0117 l -0.11133,-0.11328 a 0.82225224,0.82225224 0 0 0 -0.0117,-0.0117 l -0.11329,-0.11133 a 0.82225224,0.82225224 0 0 0 -0.0117,-0.0117 l -0.11524,-0.10938 a 0.82225224,0.82225224 0 0 0 -0.0137,-0.0117 l -0.11719,-0.10547 a 0.82225224,0.82225224 0 0 0 -0.0117,-0.0117 l -0.12109,-0.10352 a 0.82225224,0.82225224 0 0 0 -0.0117,-0.0117 l -0.12305,-0.0996 a 0.82225224,0.82225224 0 0 0 -0.0117,-0.0117 l -0.125,-0.0977 a 0.82225224,0.82225224 0 0 0 -0.0137,-0.0117 l -0.125,-0.0957 a 0.82225224,0.82225224 0 0 0 -0.0137,-0.01 l -0.12695,-0.0937 a 0.82225224,0.82225224 0 0 0 -0.0137,-0.01 l -0.13086,-0.0918 a 0.82225224,0.82225224 0 0 0 -0.0137,-0.008 l -0.13086,-0.0899 a 0.82225224,0.82225224 0 0 0 -0.0137,-0.008 l -0.13281,-0.0859 a 0.82225224,0.82225224 0 0 0 -0.0137,-0.01 l -0.13477,-0.082 a 0.82225224,0.82225224 0 0 0 -0.0156,-0.01 l -0.13672,-0.0801 a 0.82225224,0.82225224 0 0 0 -0.0137,-0.008 l -0.13672,-0.0781 a 0.82225224,0.82225224 0 0 0 -0.0156,-0.008 l -0.13867,-0.0742 a 0.82225224,0.82225224 0 0 0 -0.0156,-0.008 l -0.14063,-0.0723 a 0.82225224,0.82225224 0 0 0 -0.0137,-0.008 l -0.14258,-0.0684 a 0.82225224,0.82225224 0 0 0 -0.0156,-0.008 l -0.14258,-0.0664 a 0.82225224,0.82225224 0 0 0 -0.0156,-0.008 l -0.14453,-0.0625 a 0.82225224,0.82225224 0 0 0 -0.0156,-0.006 l -0.14649,-0.0625 a 0.82225224,0.82225224 0 0 0 -0.0156,-0.006 l -0.14649,-0.0566 a 0.82225224,0.82225224 0 0 0 -0.0156,-0.006 l -0.14844,-0.0566 a 0.82225224,0.82225224 0 0 0 -0.0156,-0.004 l -0.15039,-0.0527 a 0.82225224,0.82225224 0 0 0 -0.0156,-0.006 l -0.15039,-0.0488 a 0.82225224,0.82225224 0 0 0 -0.0156,-0.004 l -0.15039,-0.0469 a 0.82225224,0.82225224 0 0 0 -0.0156,-0.004 l -0.15234,-0.0449 a 0.82225224,0.82225224 0 0 0 -0.0176,-0.004 l -0.15235,-0.0391 a 0.82225224,0.82225224 0 0 0 -0.0156,-0.004 l -0.1543,-0.0371 a 0.82225224,0.82225224 0 0 0 -0.0156,-0.004 l -0.15625,-0.0332 a 0.82225224,0.82225224 0 0 0 -0.0156,-0.004 l -0.15625,-0.0312 a 0.82225224,0.82225224 0 0 0 -0.0156,-0.004 l -0.15625,-0.0273 a 0.82225224,0.82225224 0 0 0 -0.0156,-0.002 l -0.1582,-0.0254 a 0.82225224,0.82225224 0 0 0 -0.0156,-0.002 l -0.1582,-0.0215 a 0.82225224,0.82225224 0 0 0 -0.0156,-0.002 z"
         id="path15320" /></g></g></svg>
